<svg width="12" height="13" viewBox="0 0 12 13" fill="none" xmlns="http://www.w3.org/2000/svg">
<path d="M10.5 1.27826H8.7V0.319565C8.7 0.234811 8.66839 0.153529 8.61213 0.0935985C8.55587 0.0336684 8.47957 0 8.4 0C8.32044 0 8.24413 0.0336684 8.18787 0.0935985C8.13161 0.153529 8.1 0.234811 8.1 0.319565V1.27826H3.9V0.319565C3.9 0.234811 3.86839 0.153529 3.81213 0.0935985C3.75587 0.0336684 3.67957 0 3.6 0C3.52044 0 3.44413 0.0336684 3.38787 0.0935985C3.33161 0.153529 3.3 0.234811 3.3 0.319565V1.27826H1.5C1.10232 1.27877 0.721067 1.44727 0.439866 1.74681C0.158665 2.04635 0.000476357 2.45247 0 2.87609V11.1848C0.000476357 11.6084 0.158665 12.0145 0.439866 12.3141C0.721067 12.6136 1.10232 12.7821 1.5 12.7826H10.5C10.8977 12.7823 11.2791 12.6138 11.5603 12.3142C11.8415 12.0147 11.9997 11.6084 12 11.1848V2.87609C11.9997 2.45242 11.8415 2.0462 11.5603 1.74663C11.2791 1.44705 10.8977 1.2786 10.5 1.27826V1.27826ZM11.4 11.1848C11.4 11.439 11.3052 11.6829 11.1364 11.8627C10.9676 12.0425 10.7387 12.1435 10.5 12.1435H1.5C1.26131 12.1435 1.03239 12.0425 0.863604 11.8627C0.694821 11.6829 0.6 11.439 0.6 11.1848V5.75217H11.4V11.1848ZM11.4 5.11304H0.6V2.87609C0.6 2.34689 1.002 1.91739 1.5 1.91739H3.3V2.87609C3.3 2.96084 3.33161 3.04212 3.38787 3.10205C3.44413 3.16198 3.52044 3.19565 3.6 3.19565C3.67957 3.19565 3.75587 3.16198 3.81213 3.10205C3.86839 3.04212 3.9 2.96084 3.9 2.87609V1.91739H8.1V2.87609C8.1 2.96084 8.13161 3.04212 8.18787 3.10205C8.24413 3.16198 8.32044 3.19565 8.4 3.19565C8.47957 3.19565 8.55587 3.16198 8.61213 3.10205C8.66839 3.04212 8.7 2.96084 8.7 2.87609V1.91739H10.5C10.7387 1.91739 10.9676 2.0184 11.1364 2.19819C11.3052 2.37798 11.4 2.62182 11.4 2.87609V5.11304Z" fill="black"/>
</svg>
