<svg width="25" height="24" viewBox="0 0 25 24" fill="none" xmlns="http://www.w3.org/2000/svg">
<path d="M7.97623 2H16.4257C19.6445 2 22.2598 4.6 22.2598 7.8V16.2C22.2598 17.7383 21.6452 19.2135 20.551 20.3012C19.4569 21.3889 17.973 22 16.4257 22H7.97623C4.7574 22 2.14209 19.4 2.14209 16.2V7.8C2.14209 6.26174 2.75676 4.78649 3.85087 3.69878C4.94499 2.61107 6.42892 2 7.97623 2ZM7.77506 4C6.81466 4 5.89359 4.37928 5.21449 5.05442C4.53538 5.72955 4.15386 6.64522 4.15386 7.6V16.4C4.15386 18.39 5.77334 20 7.77506 20H16.6269C17.5873 20 18.5083 19.6207 19.1874 18.9456C19.8665 18.2705 20.2481 17.3548 20.2481 16.4V7.6C20.2481 5.61 18.6286 4 16.6269 4H7.77506ZM17.4819 5.5C17.8153 5.5 18.1352 5.6317 18.371 5.86612C18.6068 6.10054 18.7392 6.41848 18.7392 6.75C18.7392 7.08152 18.6068 7.39946 18.371 7.63388C18.1352 7.8683 17.8153 8 17.4819 8C17.1484 8 16.8286 7.8683 16.5928 7.63388C16.357 7.39946 16.2245 7.08152 16.2245 6.75C16.2245 6.41848 16.357 6.10054 16.5928 5.86612C16.8286 5.6317 17.1484 5.5 17.4819 5.5ZM12.201 7C13.5348 7 14.8141 7.52678 15.7573 8.46447C16.7005 9.40215 17.2304 10.6739 17.2304 12C17.2304 13.3261 16.7005 14.5979 15.7573 15.5355C14.8141 16.4732 13.5348 17 12.201 17C10.8671 17 9.58781 16.4732 8.64461 15.5355C7.70141 14.5979 7.17152 13.3261 7.17152 12C7.17152 10.6739 7.70141 9.40215 8.64461 8.46447C9.58781 7.52678 10.8671 7 12.201 7ZM12.201 9C11.4006 9 10.6331 9.31607 10.0671 9.87868C9.50123 10.4413 9.1833 11.2044 9.1833 12C9.1833 12.7956 9.50123 13.5587 10.0671 14.1213C10.6331 14.6839 11.4006 15 12.201 15C13.0013 15 13.7688 14.6839 14.3348 14.1213C14.9007 13.5587 15.2186 12.7956 15.2186 12C15.2186 11.2044 14.9007 10.4413 14.3348 9.87868C13.7688 9.31607 13.0013 9 12.201 9Z" fill="white"/>
</svg>
