<svg width="8" height="11" viewBox="0 0 8 11" fill="none" xmlns="http://www.w3.org/2000/svg">
<path d="M4 5.6051C4.275 5.6051 4.5105 5.49524 4.7065 5.27552C4.90217 5.05617 5 4.79236 5 4.48408C5 4.1758 4.90217 3.9118 4.7065 3.69208C4.5105 3.47273 4.275 3.36306 4 3.36306C3.725 3.36306 3.48967 3.47273 3.294 3.69208C3.098 3.9118 3 4.1758 3 4.48408C3 4.79236 3.098 5.05617 3.294 5.27552C3.48967 5.49524 3.725 5.6051 4 5.6051ZM4 11C3.93333 11 3.86667 10.986 3.8 10.958C3.73333 10.9299 3.675 10.8926 3.625 10.8459C2.40833 9.64076 1.5 8.52217 0.9 7.49009C0.3 6.45763 0 5.49299 0 4.59618C0 3.1949 0.402167 2.07856 1.2065 1.24713C2.0105 0.415711 2.94167 0 4 0C5.05833 0 5.9895 0.415711 6.7935 1.24713C7.59783 2.07856 8 3.1949 8 4.59618C8 5.49299 7.7 6.45763 7.1 7.49009C6.5 8.52217 5.59167 9.64076 4.375 10.8459C4.325 10.8926 4.26667 10.9299 4.2 10.958C4.13333 10.986 4.06667 11 4 11Z" fill="#4B4B4B"/>
</svg>
