<svg width="14" height="14" viewBox="0 0 14 14" fill="none" xmlns="http://www.w3.org/2000/svg">
<path d="M13.1374 13.75C11.5154 13.75 9.93444 13.3905 8.39443 12.6715C6.85391 11.953 5.48968 11.003 4.30172 9.8215C3.11327 8.6405 2.15768 7.28425 1.43495 5.75275C0.711714 4.22175 0.350098 2.65 0.350098 1.0375C0.350098 0.8125 0.425539 0.625 0.576422 0.475C0.727305 0.325 0.915909 0.25 1.14223 0.25H4.19761C4.37364 0.25 4.53081 0.30625 4.66912 0.41875C4.80743 0.53125 4.88916 0.675 4.91431 0.85L5.40468 3.475C5.42983 3.65 5.42681 3.80925 5.39563 3.95275C5.36394 4.09675 5.29152 4.225 5.17835 4.3375L3.36776 6.175C3.89585 7.075 4.55596 7.91875 5.3481 8.70625C6.14023 9.49375 7.0141 10.175 7.96969 10.75L9.74257 8.9875C9.85573 8.875 10.0036 8.7905 10.1862 8.734C10.3682 8.678 10.5473 8.6625 10.7233 8.6875L13.326 9.2125C13.5021 9.25 13.6467 9.33425 13.7598 9.46525C13.873 9.59675 13.9296 9.75 13.9296 9.925V12.9625C13.9296 13.1875 13.8541 13.375 13.7032 13.525C13.5524 13.675 13.3638 13.75 13.1374 13.75Z" fill="#262626"/>
</svg>
