<svg width="19" height="16" viewBox="0 0 19 16" fill="none" xmlns="http://www.w3.org/2000/svg">
<path d="M17.4019 1.32189C17.5916 1.32347 17.7773 1.37661 17.9388 1.47557C18.1004 1.57452 18.2316 1.71552 18.3183 1.8833C18.405 2.05108 18.4439 2.23925 18.4308 2.42743C18.4177 2.6156 18.353 2.79663 18.2438 2.95089L17.1957 4.43189C17.1313 9.51789 15.4203 12.9709 12.1099 14.6959C10.5324 15.4753 8.78946 15.8659 7.02817 15.8349C4.85029 15.8847 2.69815 15.3588 0.79167 14.3109C0.663419 14.2252 0.564299 14.1029 0.507376 13.9601C0.450453 13.8173 0.438399 13.6607 0.472803 13.5109C0.505012 13.3589 0.58282 13.2202 0.695957 13.1131C0.809094 13.006 0.952243 12.9355 1.10651 12.9109C2.38725 12.7331 3.64844 12.4364 4.87356 12.0249C-0.616572 9.49989 0.580433 3.82389 1.10349 2.08089C1.15449 1.90785 1.25037 1.75118 1.38151 1.62662C1.51265 1.50205 1.67445 1.41397 1.85065 1.37122C2.02686 1.32846 2.21128 1.33254 2.3854 1.38303C2.55952 1.43352 2.71722 1.52866 2.84267 1.65889C4.44971 3.30512 6.58047 4.34748 8.87296 4.60889C8.83228 3.99643 8.92752 3.38257 9.15192 2.81075C9.37633 2.23893 9.72442 1.72314 10.1716 1.29989C10.9462 0.56906 11.9744 0.163292 13.0424 0.167018C14.1103 0.170743 15.1357 0.583673 15.9051 1.31989L17.4019 1.32189ZM1.91927 13.7939C3.79223 14.6659 8.18192 15.6129 11.6432 13.8099C14.6156 12.2609 16.1455 9.07789 16.1908 4.34889C16.1928 4.19252 16.2426 4.04046 16.3336 3.91289L17.421 2.37489L17.3797 2.32189C16.8587 2.31489 16.3447 2.30789 15.8206 2.32189C15.6163 2.31724 15.4207 2.23866 15.2704 2.10089C14.6914 1.51738 13.9052 1.18296 13.0808 1.1695C12.2564 1.15604 11.4596 1.4646 10.8616 2.02889C10.4775 2.39206 10.1904 2.84458 10.0262 3.34563C9.86202 3.84668 9.82589 4.38049 9.9211 4.89889C9.93861 4.99547 9.93376 5.09474 9.90692 5.18917C9.88008 5.2836 9.83195 5.37071 9.76619 5.44389C9.70318 5.51771 9.6229 5.57502 9.5324 5.61076C9.44189 5.64651 9.34394 5.6596 9.24715 5.64889C6.54455 5.4614 4.00689 4.28795 2.12145 2.35389C1.44751 4.43189 0.592503 9.44789 6.01323 11.4189C6.12731 11.4596 6.22731 11.5318 6.30145 11.6272C6.37559 11.7225 6.42077 11.8369 6.43168 11.9569C6.44394 12.0751 6.42207 12.1943 6.36863 12.3006C6.31518 12.4068 6.23237 12.4957 6.12991 12.5569C4.80529 13.1991 3.38223 13.6171 1.91927 13.7939Z" fill="white"/>
</svg>
